<svg width="48" height="48" viewBox="0 0 48 48" fill="none" xmlns="http://www.w3.org/2000/svg">
<rect y="0.128052" width="48" height="47.5271" fill="#323238"/>
<g clip-path="url(#clip0_61385_205)">
<path d="M36.685 16.8077C35.7604 17.1944 34.7805 17.4494 33.777 17.5646C34.8353 16.9651 35.6271 16.0218 36.0049 14.9107C35.0116 15.4721 33.9235 15.8673 32.7884 16.0788C32.0949 15.3743 31.1932 14.8839 30.2009 14.6717C29.2085 14.4595 28.1716 14.5353 27.2255 14.8892C26.2793 15.2431 25.4678 15.8586 24.8969 16.6555C24.326 17.4524 24.0221 18.3937 24.0249 19.3565C24.023 19.7249 24.0669 20.0923 24.1558 20.451C22.1398 20.3564 20.1675 19.8605 18.3678 18.9956C16.568 18.1307 14.9813 16.9163 13.7112 15.4316C13.0632 16.4886 12.8654 17.7396 13.158 18.9298C13.4506 20.12 14.2117 21.1598 15.2862 21.8375C14.4787 21.8186 13.6884 21.6129 12.9842 21.2383V21.2978C12.9837 22.4061 13.3887 23.4804 14.1303 24.3381C14.8719 25.1958 15.9044 25.7841 17.0524 26.0029C16.6175 26.1146 16.1688 26.1711 15.7182 26.1711C15.3986 26.1717 15.0798 26.142 14.7665 26.0824C15.0902 27.0355 15.7206 27.8691 16.5695 28.4665C17.4185 29.0638 18.4436 29.395 19.5013 29.4138C17.7067 30.7488 15.4891 31.4726 13.2064 31.4685C12.8025 31.468 12.3991 31.445 11.998 31.3996C14.3046 32.82 16.9987 33.5734 19.7506 33.5675C21.6489 33.5801 23.5309 33.2355 25.2872 32.5537C27.0435 31.8718 28.6391 30.8664 29.9812 29.5958C31.3233 28.3253 32.3852 26.8149 33.105 25.1525C33.8249 23.4902 34.1884 21.709 34.1745 19.9125C34.1745 19.7045 34.1745 19.4966 34.1584 19.2934C35.1499 18.6134 36.0055 17.7717 36.685 16.8077V16.8077Z" fill="white"/>
</g>
<defs>
<clipPath id="clip0_61385_205">
<rect width="24.6857" height="19.0108" fill="white" transform="translate(12 14.5557)"/>
</clipPath>
</defs>
</svg>
